<svg xmlns="http://www.w3.org/2000/svg" xmlns:xlink="http://www.w3.org/1999/xlink" width="500" zoomAndPan="magnify" viewBox="0 0 375 374.999991" height="500" preserveAspectRatio="xMidYMid meet" version="1.0"><path fill="#000000" d="M 87.421875 136.003906 L 115.160156 136.003906 C 115.507812 136.003906 115.855469 136.035156 116.199219 136.105469 C 116.539062 136.171875 116.871094 136.273438 117.195312 136.40625 C 117.519531 136.542969 117.824219 136.703125 118.113281 136.898438 C 118.40625 137.09375 118.671875 137.3125 118.921875 137.5625 C 119.167969 137.808594 119.386719 138.078125 119.582031 138.367188 C 119.777344 138.65625 119.941406 138.964844 120.074219 139.285156 C 120.207031 139.609375 120.308594 139.941406 120.375 140.285156 C 120.445312 140.625 120.480469 140.972656 120.480469 141.320312 L 120.480469 293.882812 C 120.480469 294.230469 120.445312 294.578125 120.375 294.921875 C 120.308594 295.261719 120.207031 295.597656 120.074219 295.917969 C 119.941406 296.242188 119.777344 296.546875 119.582031 296.839844 C 119.386719 297.128906 119.167969 297.398438 118.921875 297.644531 C 118.671875 297.890625 118.40625 298.113281 118.113281 298.304688 C 117.824219 298.5 117.519531 298.664062 117.195312 298.796875 C 116.871094 298.929688 116.539062 299.03125 116.199219 299.101562 C 115.855469 299.167969 115.507812 299.203125 115.160156 299.203125 L 87.421875 299.203125 C 87.074219 299.203125 86.726562 299.167969 86.386719 299.101562 C 86.042969 299.03125 85.710938 298.929688 85.386719 298.796875 C 85.066406 298.664062 84.757812 298.5 84.46875 298.304688 C 84.175781 298.113281 83.910156 297.890625 83.660156 297.644531 C 83.414062 297.398438 83.195312 297.128906 83 296.839844 C 82.804688 296.546875 82.640625 296.242188 82.507812 295.917969 C 82.375 295.597656 82.273438 295.261719 82.207031 294.921875 C 82.136719 294.578125 82.105469 294.230469 82.105469 293.882812 L 82.105469 141.320312 C 82.105469 140.972656 82.136719 140.625 82.207031 140.285156 C 82.273438 139.941406 82.375 139.609375 82.507812 139.285156 C 82.640625 138.964844 82.804688 138.65625 83 138.367188 C 83.195312 138.078125 83.414062 137.808594 83.660156 137.5625 C 83.910156 137.3125 84.175781 137.09375 84.46875 136.898438 C 84.757812 136.703125 85.066406 136.542969 85.386719 136.40625 C 85.710938 136.273438 86.042969 136.171875 86.386719 136.105469 C 86.726562 136.035156 87.074219 136.003906 87.421875 136.003906 Z M 87.421875 136.003906 " fill-opacity="1" fill-rule="nonzero"/><path fill="#000000" d="M 123.632812 98.363281 C 123.589844 85.285156 114.207031 75.796875 101.292969 75.796875 C 88.378906 75.796875 78.636719 85.539062 78.636719 98.453125 C 78.636719 104.464844 80.828125 110.054688 84.808594 114.195312 C 88.898438 118.453125 94.527344 120.796875 100.664062 120.796875 C 107.457031 120.796875 113.523438 118.402344 117.746094 114.027344 C 121.699219 109.9375 123.789062 104.414062 123.636719 98.453125 C 123.636719 98.425781 123.632812 98.402344 123.632812 98.363281 Z M 123.632812 98.363281 " fill-opacity="1" fill-rule="nonzero"/><path fill="#000000" d="M 275.5625 146.734375 C 261.75 134.378906 245.5625 132.535156 237.144531 132.535156 C 224.5625 132.535156 212.578125 135.894531 202.472656 142.257812 C 198.058594 145.039062 194.066406 148.335938 190.503906 152.148438 L 189.808594 140.980469 C 189.789062 140.644531 189.734375 140.3125 189.652344 139.988281 C 189.566406 139.664062 189.453125 139.347656 189.3125 139.046875 C 189.167969 138.742188 189 138.453125 188.800781 138.183594 C 188.605469 137.910156 188.382812 137.660156 188.136719 137.429688 C 187.894531 137.199219 187.628906 136.996094 187.34375 136.816406 C 187.0625 136.636719 186.761719 136.484375 186.449219 136.363281 C 186.140625 136.238281 185.816406 136.148438 185.488281 136.085938 C 185.15625 136.023438 184.824219 135.992188 184.488281 135.992188 L 159.917969 135.992188 C 159.550781 135.992188 159.1875 136.03125 158.832031 136.105469 C 158.472656 136.179688 158.125 136.289062 157.789062 136.4375 C 157.453125 136.582031 157.136719 136.761719 156.839844 136.972656 C 156.542969 137.1875 156.265625 137.425781 156.019531 137.695312 C 155.769531 137.960938 155.550781 138.253906 155.363281 138.566406 C 155.171875 138.878906 155.019531 139.210938 154.898438 139.554688 C 154.777344 139.902344 154.691406 140.253906 154.644531 140.617188 C 154.597656 140.980469 154.585938 141.34375 154.613281 141.710938 C 155.488281 153.355469 155.859375 165.585938 155.859375 182.605469 L 155.859375 293.882812 C 155.859375 294.230469 155.894531 294.578125 155.960938 294.921875 C 156.03125 295.261719 156.128906 295.597656 156.265625 295.917969 C 156.398438 296.242188 156.5625 296.546875 156.753906 296.839844 C 156.949219 297.128906 157.171875 297.398438 157.417969 297.644531 C 157.664062 297.890625 157.933594 298.113281 158.222656 298.304688 C 158.511719 298.5 158.820312 298.664062 159.144531 298.796875 C 159.464844 298.929688 159.796875 299.03125 160.140625 299.101562 C 160.484375 299.167969 160.828125 299.203125 161.179688 299.203125 L 188.917969 299.203125 C 189.265625 299.203125 189.613281 299.167969 189.957031 299.101562 C 190.296875 299.03125 190.628906 298.929688 190.953125 298.796875 C 191.277344 298.664062 191.582031 298.5 191.871094 298.304688 C 192.164062 298.113281 192.433594 297.890625 192.679688 297.644531 C 192.925781 297.398438 193.144531 297.128906 193.339844 296.839844 C 193.535156 296.546875 193.699219 296.242188 193.832031 295.917969 C 193.964844 295.597656 194.066406 295.261719 194.132812 294.921875 C 194.203125 294.578125 194.238281 294.230469 194.238281 293.882812 L 194.238281 202.15625 C 194.238281 197.847656 194.808594 193.796875 195.808594 191.050781 C 195.835938 190.964844 195.867188 190.878906 195.894531 190.785156 C 199.644531 178.550781 211.027344 166.179688 228.003906 166.179688 C 238.511719 166.179688 246.054688 169.769531 251.0625 177.164062 C 255.585938 183.84375 257.980469 193.796875 257.980469 205.933594 L 257.980469 293.882812 C 257.980469 294.230469 258.011719 294.578125 258.082031 294.921875 C 258.148438 295.261719 258.25 295.597656 258.382812 295.917969 C 258.515625 296.242188 258.679688 296.546875 258.875 296.839844 C 259.070312 297.128906 259.289062 297.398438 259.535156 297.644531 C 259.785156 297.890625 260.050781 298.113281 260.34375 298.304688 C 260.632812 298.5 260.941406 298.664062 261.261719 298.796875 C 261.585938 298.929688 261.917969 299.03125 262.261719 299.101562 C 262.601562 299.167969 262.949219 299.203125 263.296875 299.203125 L 291.039062 299.203125 C 291.386719 299.203125 291.730469 299.167969 292.074219 299.101562 C 292.417969 299.03125 292.75 298.929688 293.074219 298.796875 C 293.394531 298.664062 293.703125 298.5 293.992188 298.304688 C 294.28125 298.113281 294.550781 297.890625 294.796875 297.644531 C 295.046875 297.398438 295.265625 297.128906 295.460938 296.839844 C 295.652344 296.546875 295.816406 296.242188 295.953125 295.917969 C 296.085938 295.597656 296.1875 295.261719 296.253906 294.921875 C 296.324219 294.578125 296.355469 294.230469 296.355469 293.882812 L 296.355469 202.789062 C 296.355469 189.808594 294.394531 178.304688 290.527344 168.597656 C 287.054688 159.867188 282.015625 152.511719 275.5625 146.734375 Z M 275.5625 146.734375 " fill-opacity="1" fill-rule="nonzero"/><path fill="#000000" d="M 326.179688 0 L 48.820312 0 C 21.898438 0 0 21.902344 0 48.820312 L 0 326.179688 C 0 353.097656 21.898438 375 48.820312 375 L 326.179688 375 C 353.097656 375 375 353.097656 375 326.179688 L 375 48.820312 C 375 21.902344 353.097656 0 326.179688 0 Z M 340.722656 51.183594 L 340.722656 323.816406 C 340.71875 324.371094 340.691406 324.921875 340.636719 325.472656 C 340.582031 326.023438 340.5 326.570312 340.394531 327.113281 C 340.285156 327.65625 340.148438 328.191406 339.988281 328.722656 C 339.828125 329.25 339.640625 329.769531 339.429688 330.28125 C 339.21875 330.792969 338.980469 331.292969 338.71875 331.78125 C 338.457031 332.269531 338.171875 332.742188 337.867188 333.203125 C 337.558594 333.664062 337.230469 334.109375 336.878906 334.535156 C 336.527344 334.964844 336.15625 335.371094 335.765625 335.765625 C 335.371094 336.15625 334.964844 336.527344 334.535156 336.878906 C 334.109375 337.230469 333.664062 337.558594 333.203125 337.867188 C 332.742188 338.171875 332.269531 338.457031 331.78125 338.71875 C 331.292969 338.980469 330.792969 339.21875 330.28125 339.429688 C 329.769531 339.640625 329.25 339.828125 328.722656 339.988281 C 328.191406 340.148438 327.65625 340.285156 327.113281 340.394531 C 326.570312 340.5 326.023438 340.582031 325.472656 340.636719 C 324.921875 340.691406 324.371094 340.71875 323.816406 340.722656 L 51.183594 340.722656 C 50.628906 340.71875 50.078125 340.691406 49.527344 340.636719 C 48.976562 340.582031 48.429688 340.5 47.886719 340.394531 C 47.34375 340.285156 46.808594 340.148438 46.277344 339.988281 C 45.75 339.828125 45.230469 339.640625 44.71875 339.429688 C 44.207031 339.21875 43.707031 338.980469 43.21875 338.71875 C 42.730469 338.457031 42.257812 338.171875 41.796875 337.867188 C 41.335938 337.558594 40.890625 337.230469 40.464844 336.878906 C 40.035156 336.527344 39.628906 336.15625 39.234375 335.765625 C 38.84375 335.371094 38.472656 334.964844 38.121094 334.535156 C 37.769531 334.109375 37.441406 333.664062 37.132812 333.203125 C 36.828125 332.742188 36.542969 332.269531 36.28125 331.78125 C 36.019531 331.292969 35.78125 330.792969 35.570312 330.28125 C 35.359375 329.769531 35.171875 329.25 35.011719 328.722656 C 34.851562 328.191406 34.714844 327.65625 34.605469 327.113281 C 34.5 326.570312 34.417969 326.023438 34.363281 325.472656 C 34.308594 324.921875 34.28125 324.371094 34.277344 323.816406 L 34.277344 51.183594 C 34.28125 50.628906 34.308594 50.078125 34.363281 49.527344 C 34.417969 48.976562 34.5 48.429688 34.605469 47.886719 C 34.714844 47.34375 34.851562 46.808594 35.011719 46.277344 C 35.171875 45.75 35.359375 45.230469 35.570312 44.71875 C 35.78125 44.207031 36.019531 43.707031 36.28125 43.21875 C 36.542969 42.730469 36.828125 42.257812 37.132812 41.796875 C 37.441406 41.335938 37.769531 40.890625 38.121094 40.464844 C 38.472656 40.035156 38.84375 39.628906 39.234375 39.234375 C 39.628906 38.84375 40.035156 38.472656 40.464844 38.121094 C 40.890625 37.769531 41.335938 37.441406 41.796875 37.132812 C 42.257812 36.828125 42.730469 36.542969 43.21875 36.28125 C 43.707031 36.019531 44.207031 35.78125 44.71875 35.570312 C 45.230469 35.359375 45.75 35.171875 46.277344 35.011719 C 46.808594 34.851562 47.34375 34.714844 47.886719 34.605469 C 48.429688 34.5 48.976562 34.417969 49.527344 34.363281 C 50.078125 34.308594 50.628906 34.28125 51.183594 34.277344 L 323.816406 34.277344 C 324.371094 34.28125 324.921875 34.308594 325.472656 34.363281 C 326.023438 34.417969 326.570312 34.5 327.113281 34.605469 C 327.65625 34.714844 328.191406 34.851562 328.722656 35.011719 C 329.25 35.171875 329.769531 35.359375 330.28125 35.570312 C 330.792969 35.78125 331.292969 36.019531 331.78125 36.28125 C 332.269531 36.542969 332.742188 36.828125 333.203125 37.132812 C 333.664062 37.441406 334.109375 37.769531 334.535156 38.121094 C 334.964844 38.472656 335.371094 38.84375 335.765625 39.234375 C 336.15625 39.628906 336.527344 40.035156 336.878906 40.464844 C 337.230469 40.890625 337.558594 41.335938 337.867188 41.796875 C 338.171875 42.257812 338.457031 42.730469 338.71875 43.21875 C 338.980469 43.707031 339.21875 44.207031 339.429688 44.71875 C 339.640625 45.230469 339.828125 45.75 339.988281 46.277344 C 340.148438 46.808594 340.285156 47.34375 340.394531 47.886719 C 340.5 48.429688 340.582031 48.976562 340.636719 49.527344 C 340.691406 50.078125 340.71875 50.628906 340.722656 51.183594 Z M 340.722656 51.183594 " fill-opacity="1" fill-rule="nonzero"/></svg>