<svg xmlns="http://www.w3.org/2000/svg" xmlns:xlink="http://www.w3.org/1999/xlink" width="500" zoomAndPan="magnify" viewBox="0 0 375 374.999991" height="500" preserveAspectRatio="xMidYMid meet" version="1.0"><defs><clipPath id="435a52148a"><path d="M 0 0 L 372.75 0 L 372.75 372.75 L 0 372.75 Z M 0 0 " clip-rule="nonzero"/></clipPath></defs><g clip-path="url(#435a52148a)"><path fill="#000000" d="M 186.375 0 C 83.441406 0 0 83.441406 0 186.375 C 0 289.304688 83.441406 372.75 186.375 372.75 C 289.304688 372.75 372.75 289.304688 372.75 186.375 C 372.75 83.441406 289.304688 0 186.375 0 Z M 186.375 358.632812 C 91.238281 358.632812 14.117188 281.511719 14.117188 186.375 C 14.117188 91.238281 91.238281 14.117188 186.375 14.117188 C 281.511719 14.117188 358.632812 91.238281 358.632812 186.375 C 358.632812 281.511719 281.511719 358.632812 186.375 358.632812 Z M 186.375 358.632812 " fill-opacity="1" fill-rule="nonzero"/></g><path fill="#000000" d="M 164.5 277.730469 C 159.828125 278.179688 156.09375 278.695312 152.34375 278.871094 C 131.078125 279.875 115.332031 271.492188 105.785156 251.941406 C 102.746094 245.71875 98.851562 239.839844 94.800781 234.203125 C 92.363281 230.8125 88.953125 228.09375 85.800781 225.269531 L 85.765625 225.238281 C 83.816406 223.523438 84.675781 220.316406 87.234375 219.886719 C 90.238281 219.378906 93.039062 219.921875 95.769531 220.617188 C 104.320312 222.792969 109.808594 228.855469 114.183594 236.105469 C 124.070312 252.5 141.101562 259.339844 159.519531 254.457031 C 162.644531 253.625 164.023438 252.28125 164.703125 248.871094 C 165.496094 244.894531 166.574219 240.972656 167.734375 236.976562 C 167.90625 236.390625 168.015625 235.789062 168.066406 235.179688 C 168.113281 234.566406 168.101562 233.957031 168.023438 233.351562 C 167.949219 232.742188 167.8125 232.148438 167.617188 231.566406 C 167.421875 230.984375 167.167969 230.429688 166.859375 229.902344 C 166.550781 229.371094 166.191406 228.878906 165.785156 228.421875 C 165.375 227.96875 164.921875 227.558594 164.429688 227.191406 C 163.9375 226.828125 163.414062 226.515625 162.859375 226.257812 C 162.300781 226 161.726562 225.800781 161.128906 225.660156 L 161.027344 225.636719 C 141.917969 221.0625 125.410156 212.550781 114.773438 195.089844 C 109.085938 185.753906 106.273438 175.46875 106.417969 164.75 C 106.582031 152.59375 107.65625 140.410156 109.054688 128.320312 C 110.039062 119.808594 113.980469 112.269531 120.101562 106.148438 C 122.234375 104.015625 122.414062 102.226562 121.386719 99.464844 C 117.171875 88.152344 117.902344 76.816406 121.644531 65.484375 C 122.699219 62.285156 124.199219 61.828125 127.257812 62.789062 C 136.726562 65.769531 143.789062 71.929688 149.996094 79.308594 L 150.0625 79.386719 C 150.839844 80.320312 151.742188 81.125 152.761719 81.789062 C 153.78125 82.457031 154.878906 82.960938 156.050781 83.300781 C 157.21875 83.636719 158.414062 83.796875 159.632812 83.777344 C 160.851562 83.757812 162.042969 83.558594 163.203125 83.183594 C 182.851562 76.738281 212.660156 76.652344 231.191406 83.03125 C 232.355469 83.425781 233.550781 83.640625 234.78125 83.671875 C 236.007812 83.707031 237.214844 83.554688 238.398438 83.222656 C 239.582031 82.890625 240.691406 82.390625 241.722656 81.71875 C 242.753906 81.050781 243.664062 80.246094 244.453125 79.300781 L 244.511719 79.230469 C 250.730469 71.851562 257.824219 65.742188 267.285156 62.75 C 270.460938 61.75 271.8125 62.511719 272.820312 65.597656 C 276.511719 76.941406 277.140625 88.207031 273.144531 99.636719 C 272.585938 101.246094 272.605469 104.042969 273.609375 105.058594 C 282.089844 113.664062 285.804688 124.347656 286.746094 135.921875 C 287.65625 147.101562 288.644531 158.476562 287.605469 169.582031 C 284.90625 198.457031 267.347656 215.277344 240.644531 223.640625 C 238.359375 224.355469 236.039062 224.953125 233.667969 225.515625 C 233.054688 225.660156 232.460938 225.867188 231.886719 226.136719 C 231.3125 226.410156 230.777344 226.734375 230.273438 227.117188 C 229.769531 227.503906 229.308594 227.933594 228.894531 228.414062 C 228.484375 228.894531 228.125 229.410156 227.820312 229.964844 C 227.515625 230.519531 227.269531 231.101562 227.085938 231.707031 C 226.90625 232.3125 226.785156 232.933594 226.734375 233.5625 C 226.679688 234.195312 226.695312 234.824219 226.773438 235.453125 C 226.851562 236.078125 226.996094 236.691406 227.203125 237.289062 C 230.839844 247.832031 230.285156 259.089844 230.226562 270.277344 C 230.214844 272.851562 230.207031 275.421875 230.203125 277.996094 C 230.199219 279.058594 230.144531 280.121094 230.039062 281.175781 C 229.933594 282.234375 229.773438 283.285156 229.566406 284.324219 C 229.355469 285.367188 229.097656 286.394531 228.785156 287.410156 C 228.476562 288.429688 228.117188 289.425781 227.707031 290.40625 C 227.300781 291.386719 226.84375 292.347656 226.34375 293.28125 C 225.839844 294.21875 225.292969 295.128906 224.703125 296.011719 C 224.109375 296.894531 223.476562 297.746094 222.804688 298.566406 C 222.128906 299.386719 221.414062 300.171875 220.664062 300.921875 C 219.910156 301.671875 219.125 302.382812 218.300781 303.058594 C 217.480469 303.730469 216.625 304.363281 215.742188 304.953125 C 214.859375 305.542969 213.949219 306.085938 213.011719 306.585938 C 212.074219 307.085938 211.113281 307.539062 210.132812 307.945312 C 209.148438 308.351562 208.152344 308.707031 207.132812 309.015625 C 206.117188 309.324219 205.085938 309.582031 204.046875 309.789062 C 203.003906 309.996094 201.953125 310.152344 200.894531 310.253906 C 199.839844 310.359375 198.777344 310.410156 197.714844 310.410156 L 196.984375 310.410156 C 195.921875 310.410156 194.859375 310.359375 193.800781 310.253906 C 192.742188 310.148438 191.691406 309.992188 190.648438 309.785156 C 189.605469 309.578125 188.574219 309.320312 187.554688 309.011719 C 186.535156 308.703125 185.535156 308.34375 184.554688 307.9375 C 183.570312 307.53125 182.609375 307.074219 181.671875 306.574219 C 180.734375 306.074219 179.820312 305.527344 178.9375 304.9375 C 178.050781 304.34375 177.199219 303.710938 176.375 303.035156 C 175.554688 302.363281 174.765625 301.648438 174.015625 300.894531 C 173.261719 300.144531 172.546875 299.355469 171.875 298.535156 C 171.199219 297.710938 170.566406 296.859375 169.972656 295.972656 C 169.382812 295.089844 168.835938 294.175781 168.335938 293.238281 C 167.835938 292.300781 167.378906 291.339844 166.972656 290.355469 C 166.566406 289.375 166.207031 288.375 165.898438 287.355469 C 165.589844 286.335938 165.332031 285.304688 165.125 284.261719 C 164.917969 283.21875 164.761719 282.167969 164.65625 281.109375 C 164.550781 280.050781 164.5 278.988281 164.5 277.925781 Z M 164.5 277.730469 " fill-opacity="1" fill-rule="nonzero"/></svg>